<svg xmlns="http://www.w3.org/2000/svg" height="24px" viewBox="0 -960 960 960" width="24px" fill="#e3e3e3"><path d="M 586,-288 Q 714,-305 797,-358 880,-411 880,-480 880,-563 764.5,-621.5 649,-680 480,-680 311,-680 195.5,-621.5 80,-563 80,-480 80,-424 134.5,-378.5 189,-333 279,-307 295,-302 307.5,-311.5 320,-321 320,-337 320,-355 309.5,-369 299,-383 282,-389 222,-409 191,-434.5 160,-460 160,-480 160,-512 245.5,-556 331,-600 480,-600 629,-600 714.5,-556 800,-512 800,-480 800,-456 749,-422.5 698,-389 604,-372 L 628,-396 Q 639,-407 639,-424 639,-441 628,-452 617,-463 600,-463 583,-463 572,-452 L 468,-348 Q 456,-336 456,-320 456,-304 468,-292 L 572,-188 Q 583,-177 599.5,-176.5 616,-176 628,-188 639,-199 639.5,-215.5 640,-232 629,-244 Z"/></svg>