<svg xmlns="http://www.w3.org/2000/svg" height="24px" viewBox="0 -960 960 960" width="24px" fill="#e3e3e3"><path d="M 166.29024,-120 V -840 H 381.52999 Q 391.11557,-875 419.00088,-897.5 446.88619,-920 480,-920 514.85664,-920 542.30624,-897.5 569.75585,-875 579.34142,-840 H 793.70976 V -120 Z M 236.00352,-200 H 723.99648 V -760 H 654.2832 V -640 H 305.7168 V -760 H 236.00352 Z M 504.83536,-771.5 Q 514.85664,-783 514.85664,-800 514.85664,-817 504.83536,-828.5 494.81407,-840 480,-840 465.18593,-840 455.16464,-828.5 445.14336,-817 445.14336,-800 445.14336,-783 455.16464,-771.5 465.18593,-760 480,-760 494.81407,-760 504.83536,-771.5 Z"/></svg>