<svg xmlns="http://www.w3.org/2000/svg" height="24px" viewBox="0 -960 960 960" width="24px" fill="#e3e3e3"><path d="M147.89-261.09q-80.96-81.08-80.96-196.92 0-115.84 80.99-196.99t196.7-81.15q49.69 0 93.96 16.31 44.27 16.3 79.96 45.3l19.38-19.38q8.31-8.31 20.58-8.42 12.27-.12 21.26 8.87 8.24 8.24 8.24 20.62 0 12.39-8.31 20.7l-19 19.38q29 35.69 45.5 80.27t16.5 94.42q0 115.87-81.08 196.97Q460.52-180 344.68-180q-115.83 0-196.79-81.09Zm138.26-523.52q-12.75 0-21.37-8.63-8.62-8.63-8.62-21.39 0-12.75 8.62-21.37 8.62-8.61 21.37-8.61h117.7q12.75 0 21.37 8.63 8.63 8.62 8.63 21.38t-8.63 21.37q-8.62 8.62-21.37 8.62h-117.7Zm213.09 481.16q63.45-63.45 63.45-154.65 0-91.21-63.45-154.63-63.44-63.42-154.65-63.42-91.2 0-154.44 63.44-63.23 63.45-63.23 154.66 0 91.2 63.23 154.63Q253.39-240 344.59-240q91.21 0 154.65-63.45ZM366-440.55q8.61-8.62 8.61-21.37v-116.16q0-12.75-8.62-21.37-8.63-8.63-21.39-8.63-12.75 0-21.37 8.63-8.61 8.62-8.61 21.37v116.16q0 12.75 8.63 21.37 8.62 8.63 21.38 8.63 12.75 0 21.37-8.63Zm-21.38-17.53Zm407.76 252.77-86.23-86.23q-8.69-9.31-8.69-21.38 0-12.08 9.31-20.77t21.38-9q12.08-.31 20.77 9l38.77 38.77V-750q0-12.75 8.63-21.37 8.63-8.63 21.39-8.63 12.75 0 21.37 8.63 8.61 8.62 8.61 21.37v455.69l39.39-39.38q8.69-8.69 21.07-8.69 12.39 0 21.08 8.69 8.69 8.69 8.69 21.07 0 12.39-8.69 21.08L803-205.31q-10.85 10.85-25.31 10.85-14.46 0-25.31-10.85Z"/></svg>