<?xml version="1.0" encoding="UTF-8" standalone="no"?>
<svg
   height="24px"
   viewBox="0 -960 960 960"
   width="24px"
   fill="#e3e3e3"
   version="1.1"
   id="svg1"
   xmlns="http://www.w3.org/2000/svg"
   xmlns:svg="http://www.w3.org/2000/svg">
   <defs
      id="defs1" />
   <path d="M 480,-120 Q 555,-120 620.5,-148.5 686,-177 734.5,-225.5 783,-274 811.5,-339.5 840,-405 840,-480 840,-555 811.5,-620.5 783,-686 734.5,-734.5 686,-783 620.5,-811.5 555,-840 480,-840 398,-840 324.5,-805 251,-770 200,-706 V -800 H 120 V -560 H 360 V -640 H 250 Q 291,-696 351,-728 411,-760 480,-760 597,-760 678.5,-678.5 760,-597 760,-480 760,-363 678.5,-281.5 597,-200 480,-200 375,-200 296.5,-268 218,-336 204,-440 H 122 Q 137,-303 239.5,-211.5 342,-120 480,-120 Z M 368,-312 520,-464 V -680 H 440 V -496 L 312,-368 Z" />
</svg>