<?xml version="1.0" encoding="UTF-8" standalone="no"?>
<!-- Created with Inkscape (http://www.inkscape.org/) -->

<svg
   width="9.1348467mm"
   height="10.300423mm"
   viewBox="0 0 9.1348467 10.300423"
   version="1.1"
   id="svg1"
   xmlns="http://www.w3.org/2000/svg"
   xmlns:svg="http://www.w3.org/2000/svg">
  <defs
     id="defs1" />
  <g
     id="layer1"
     transform="translate(-92.020125,-116.40941)">
    <path
       d="M 100.41026,126.49852 Q 99.066876,126.49852 98.572986,125.98487 98.118608,125.55025 98.118608,125.23416 V 124.81929 Q 97.150583,126.57754 95.016978,126.57754 92.527773,126.57754 92.191928,124.3254 92.152416,124.08834 92.152416,123.85127 92.152416,123.59445 92.231439,123.29811 92.310461,123.00178 92.685818,122.64618 93.43653,121.93498 95.985003,121.77693 96.617182,121.71766 97.150583,121.71766 97.683984,121.71766 98.118608,121.75718 V 118.47775 Q 98.079096,118.45799 98.118608,118.29995 98.158119,118.12215 98.039585,117.86532 97.940807,117.58874 97.763007,117.33192 97.585206,117.0751 97.130828,116.8973 96.676449,116.69974 95.945492,116.69974 95.214534,116.69974 94.226754,116.97632 93.25873,117.23314 92.804351,117.48997 L 92.725329,117.35168 Q 94.483577,116.5417 96.301092,116.5417 98.335919,116.5417 98.987854,117.27265 99.5015,117.84557 99.5015,118.47775 V 125.09587 Q 99.5015,125.66878 99.718811,125.98487 99.955878,126.28121 100.19295,126.30096 L 100.41026,126.34048 H 101.02268 V 126.49852 Z M 95.333068,126.4195 Q 96.380115,126.4195 97.20985,125.7083 98.059341,124.97734 98.118608,124.30565 V 121.91522 Q 97.585206,121.87571 97.03205,121.87571 96.498648,121.87571 95.965247,121.93498 94.463822,122.11278 94.009443,122.60667 93.555064,123.10056 93.555064,123.9698 93.555064,124.12785 93.57482,124.3254 93.75262,126.4195 95.333068,126.4195 Z"
       id="text1"
       style="font-size:19.7556px;line-height:0;font-family:Italiana;-inkscape-font-specification:Italiana;text-align:center;letter-spacing:0.529167px;word-spacing:0px;text-anchor:middle;fill:#e3e3e3;stroke:#e3e3e3;stroke-width:0.264583"
       aria-label="a" />
  </g>
</svg>
