<?xml version="1.0" encoding="UTF-8" standalone="no"?>
<!-- Created with Inkscape (http://www.inkscape.org/) -->

<svg
   width="76.7705mm"
   height="20.674707mm"
   viewBox="0 0 76.7705 20.674707"
   version="1.1"
   id="svg1"
   inkscape:version="1.3 (0e150ed, 2023-07-21)"
   sodipodi:docname="laurus-della-respira.svg"
   xmlns:inkscape="http://www.inkscape.org/namespaces/inkscape"
   xmlns:sodipodi="http://sodipodi.sourceforge.net/DTD/sodipodi-0.dtd"
   xmlns="http://www.w3.org/2000/svg"
   xmlns:svg="http://www.w3.org/2000/svg">
  <sodipodi:namedview
     id="namedview1"
     pagecolor="#505050"
     bordercolor="#ffffff"
     borderopacity="1"
     inkscape:showpageshadow="0"
     inkscape:pageopacity="0"
     inkscape:pagecheckerboard="1"
     inkscape:deskcolor="#505050"
     inkscape:document-units="mm"
     inkscape:zoom="0.84918651"
     inkscape:cx="109.51658"
     inkscape:cy="117.17096"
     inkscape:window-width="1392"
     inkscape:window-height="1212"
     inkscape:window-x="1096"
     inkscape:window-y="427"
     inkscape:window-maximized="0"
     inkscape:current-layer="layer1" />
  <defs
     id="defs1" />
  <g
     inkscape:label="Layer 1"
     inkscape:groupmode="layer"
     id="layer1"
     transform="translate(-52.972243,-99.328875)">
    <path
       style="font-size:25.4px;line-height:0;font-family:'Della Respira';-inkscape-font-specification:'Della Respira';text-align:center;text-anchor:middle;fill:#e3e3e3;stroke-width:0.264583;fill-opacity:1;stroke:#e3e3e3;stroke-opacity:1"
       d="M 53.939626,117.4735 V 101.49928 Q 53.939626,100.59391 53.344314,99.998601 53.294704,99.948992 53.133474,99.874578 52.972243,99.800164 52.972243,99.564519 52.972243,99.328875 53.133474,99.328875 H 57.151833 Q 57.313064,99.328875 57.313064,99.552117 57.313064,99.762957 57.251052,99.812566 57.201442,99.849773 57.102224,99.899382 57.003005,99.936589 56.841774,100.09782 56.692946,100.24665 56.519314,100.66833 56.345681,101.0776 56.345681,101.49928 V 117.63473 H 64.580837 Q 65.982302,117.63473 66.403981,117.31227 66.627224,117.16344 66.751247,116.97741 66.87527,116.79137 66.937282,116.79137 67.011696,116.77897 67.185329,116.84098 67.371364,116.903 67.371364,116.9526 67.371364,117.00221 67.197731,117.4363 L 66.800856,118.44089 Q 66.577614,118.99899 66.490798,119.29665 66.416384,119.5819 66.279958,119.64391 H 53.133474 Q 52.972243,119.64391 52.972243,119.43307 52.972243,119.20983 53.021853,119.17262 53.083864,119.12301 53.183083,119.08581 53.282302,119.0362 53.43113,118.88737 53.59236,118.72614 53.765993,118.31686 53.939626,117.89518 53.939626,117.4735 Z M 70.310719,116.50612 Q 70.310719,117.33708 71.030055,117.75876 71.749391,118.16803 72.493532,118.16803 73.237672,118.16803 73.59734,118.10602 73.96941,118.04401 74.353883,117.88278 75.073219,117.58512 75.631324,117.26266 75.631324,117.26266 76.214235,116.9402 L 75.494899,113.64118 Q 75.048414,113.81481 74.39109,114.02565 L 73.200465,114.39772 Q 70.310719,115.26589 70.310719,116.50612 Z M 75.259254,112.36374 Q 74.887184,108.9655 73.287282,108.9655 72.307496,108.9655 71.575758,109.67243 70.856422,110.36696 70.856422,111.30954 L 70.968043,111.81803 Q 70.968043,111.91725 70.719996,112.12809 70.484352,112.33893 70.397535,112.26452 L 68.958864,110.41657 Q 68.958864,110.25534 69.231715,110.0569 69.516969,109.85846 69.715407,109.66003 L 70.013063,109.37477 Q 70.657985,108.72985 70.918434,108.55622 L 71.526149,108.15934 Q 72.419117,107.57643 73.510524,107.57643 75.110426,107.57643 75.941383,108.4446 76.511891,109.03991 76.735133,109.62282 76.958375,110.19333 77.057594,110.553 77.268434,111.32194 77.40486,112.33893 L 77.541285,113.29391 Q 77.615699,113.86442 77.690114,114.36051 77.77693,114.85661 77.801735,115.04264 77.826539,115.21628 77.925758,115.67516 78.024977,116.12165 78.111793,116.4193 78.372242,117.29987 78.719508,117.74635 79.066774,118.18044 79.488453,118.18044 79.922535,118.18044 80.096168,117.93239 80.418629,117.4611 80.567457,117.4611 80.641871,117.4611 80.815504,117.63473 80.989137,117.80837 80.989137,117.89518 80.989137,117.982 80.592262,118.47809 80.207789,118.96178 79.711696,119.43307 79.228004,119.90436 79.017164,119.90436 78.223414,119.90436 77.504078,119.28425 76.797145,118.65173 76.635914,117.95719 76.226637,118.32926 75.246852,118.86257 73.312086,119.90436 72.146266,119.90436 70.980446,119.90436 70.174293,119.5695 69.380543,119.23464 68.847243,118.5401 68.326344,117.84557 68.326344,117.08903 68.326344,116.33249 68.537184,115.82399 68.748024,115.3155 69.082887,114.95583 69.41775,114.58376 69.913844,114.2737 70.409938,113.95124 70.918434,113.7404 71.985035,113.30632 73.274879,112.97145 74.577125,112.62419 75.259254,112.36374 Z M 82.514624,109.89567 82.527026,109.67243 Q 82.527026,109.63522 83.39519,108.94069 84.275757,108.23376 84.908276,107.82448 H 85.515991 Q 85.590405,107.89889 85.590405,108.20895 V 115.78678 Q 85.590405,116.56813 86.086499,117.17585 87.078686,118.36647 88.889428,118.36647 90.129663,118.36647 91.679956,117.54792 L 92.225659,117.26266 V 109.59801 Q 92.225659,108.69264 91.617944,108.457 91.456714,108.39499 91.357495,108.33298 91.258276,108.27096 91.258276,108.04772 91.258276,107.82448 91.419507,107.82448 H 94.210034 Q 94.284448,107.82448 94.284448,111.85524 L 94.272046,116.71696 Q 94.272046,117.41149 94.693725,117.78356 94.792944,117.87038 95.016186,117.88278 95.239428,117.89518 95.30144,117.95719 95.375854,118.0068 95.375854,118.24245 95.388256,118.46569 95.326245,118.5029 L 92.907788,119.76794 Q 92.858178,119.80514 92.585327,119.80514 92.312475,119.80514 92.262866,119.75553 92.213257,119.70592 92.213257,119.42067 V 118.34167 Q 92.200854,118.34167 92.014819,118.47809 89.695581,120.00358 88.120483,120.00358 87.066284,120.00358 85.999682,119.47028 84.933081,118.92458 84.23855,118.0068 83.544018,117.08903 83.544018,116.09684 V 111.1235 Q 83.544018,110.6026 83.345581,110.37936 83.147143,110.14372 82.911499,110.14372 82.675854,110.13132 82.613843,110.08171 82.514624,110.00729 82.514624,109.89567 Z M 97.298218,109.89567 97.310621,109.67243 Q 97.310621,109.61042 97.372632,109.57321 97.447046,109.5236 97.459449,109.5112 L 99.691871,107.86169 Q 99.74148,107.82448 99.964722,107.82448 100.20037,107.82448 100.28718,107.88649 100.374,107.9361 100.374,108.20895 V 110.34216 Q 100.44841,110.21813 100.57244,110.0693 101.46541,108.95309 102.43279,108.34538 103.40017,107.73766 104.64041,107.73766 105.03728,107.73766 105.07449,107.83688 105.28533,108.40739 105.42175,108.91589 L 105.80623,110.37936 Q 105.84343,110.51579 105.60779,110.65221 105.38455,110.77624 105.26052,110.76384 105.1365,110.75143 105.00007,110.52819 L 104.86365,110.30495 Q 104.19392,109.68483 103.30095,109.82126 102.42039,109.94528 101.62664,110.46618 100.84529,110.98708 100.47322,111.59479 100.46082,111.6196 100.41121,111.69401 100.374,111.75602 100.374,111.78083 V 117.4735 Q 100.374,117.53551 100.3616,117.74635 100.3616,117.94479 100.3616,118.0068 100.46082,118.78815 100.8949,118.97419 101.32898,119.16022 101.34138,119.29665 101.34138,119.64391 101.18015,119.64391 H 97.509058 Q 97.347828,119.64391 97.347828,119.42067 97.347828,119.19743 97.447046,119.13542 97.546265,119.07341 97.695093,119.01139 97.856324,118.94938 97.94314,118.86257 98.129175,118.67653 98.228394,118.44089 98.340015,118.19284 98.327613,117.85798 98.327613,117.52311 98.327613,117.4735 V 110.91266 Q 98.315211,110.50339 98.116773,110.34216 97.930738,110.16852 97.707496,110.15612 97.484254,110.14372 97.409839,110.09411 97.298218,110.00729 97.298218,109.89567 Z M 107.18289,109.89567 107.19529,109.67243 Q 107.19529,109.63522 108.06345,108.94069 108.94402,108.23376 109.57654,107.82448 H 110.18425 Q 110.25867,107.89889 110.25867,108.20895 V 115.78678 Q 110.25867,116.56813 110.75476,117.17585 111.74695,118.36647 113.55769,118.36647 114.79793,118.36647 116.34822,117.54792 L 116.89392,117.26266 V 109.59801 Q 116.89392,108.69264 116.28621,108.457 116.12498,108.39499 116.02576,108.33298 115.92654,108.27096 115.92654,108.04772 115.92654,107.82448 116.08777,107.82448 H 118.8783 Q 118.95271,107.82448 118.95271,111.85524 L 118.94031,116.71696 Q 118.94031,117.41149 119.36199,117.78356 119.46121,117.87038 119.68445,117.88278 119.90769,117.89518 119.9697,117.95719 120.04412,118.0068 120.04412,118.24245 120.05652,118.46569 119.99451,118.5029 L 117.57605,119.76794 Q 117.52644,119.80514 117.25359,119.80514 116.98074,119.80514 116.93113,119.75553 116.88152,119.70592 116.88152,119.42067 V 118.34167 Q 116.86912,118.34167 116.68308,118.47809 114.36384,120.00358 112.78875,120.00358 111.73455,120.00358 110.66794,119.47028 109.60134,118.92458 108.90681,118.0068 108.21228,117.08903 108.21228,116.09684 V 111.1235 Q 108.21228,110.6026 108.01384,110.37936 107.81541,110.14372 107.57976,110.14372 107.34412,110.13132 107.28211,110.08171 107.18289,110.00729 107.18289,109.89567 Z M 129.29626,110.35456 Q 129.29626,110.49098 129.04822,110.49098 128.80017,110.47858 128.75056,110.47858 128.60173,110.47858 128.52732,110.26774 128.25447,109.62282 127.3863,109.21354 126.51814,108.79186 125.68718,108.79186 124.85622,108.79186 124.24851,109.20114 123.64079,109.61042 123.64079,110.24294 123.64079,110.86305 124.1989,111.28473 124.757,111.70641 125.32751,112.01647 125.91042,112.31413 126.09646,112.42575 L 127.27468,113.09548 Q 128.86218,113.96364 129.38308,114.93102 129.74275,115.60075 129.74275,116.58053 129.74275,117.54792 129.18464,118.35407 128.10564,119.90436 125.57556,119.90436 124.28572,119.90436 122.47497,119.45788 122.42536,119.43307 122.30134,119.40827 122.17732,119.38346 122.0657,119.33385 121.96648,119.28425 121.95407,119.07341 121.94167,118.86257 121.79284,118.20524 121.64402,117.53551 121.64402,117.34948 121.64402,117.16344 121.66882,117.12624 121.70603,117.07663 121.74323,117.05182 121.78044,117.01462 121.85486,116.98981 121.92927,116.9526 121.96648,116.9402 122.00368,116.9278 122.0781,116.903 122.36335,116.81618 122.599,117.18825 122.84704,117.54792 124.00046,118.0068 125.16628,118.45329 126.00964,118.45329 126.853,118.45329 127.3739,118.03161 127.9072,117.59753 127.9072,116.87819 127.9072,115.8736 126.70417,115.24108 L 124.47175,114.05046 Q 123.56638,113.54196 123.24392,113.26911 122.47497,112.59938 122.16491,111.99167 121.85486,111.38395 121.85486,110.61501 121.85486,109.10192 122.97107,108.34538 124.09968,107.58884 126.05925,107.58884 126.92741,107.58884 127.96921,107.71286 129.02341,107.83688 129.27146,108.09733 129.30866,108.13454 129.30866,109.03991 129.32107,109.94528 129.29626,110.35456 Z"
       id="text1"
       aria-label="Laurus" />
  </g>
</svg>
