<?xml version="1.0" encoding="UTF-8" standalone="no"?>
<!-- Created with Inkscape (http://www.inkscape.org/) -->

<svg
   width="7.2185531mm"
   height="10.300423mm"
   viewBox="0 0 7.2185531 10.300423"
   version="1.1"
   id="svg1"
   xmlns="http://www.w3.org/2000/svg"
   xmlns:svg="http://www.w3.org/2000/svg">
  <defs
     id="defs1" />
  <g
     id="layer1"
     transform="translate(-103.26017,-112.98211)">
    <path
       d="M 109.25988,113.88487 Q 108.94379,113.62804 108.23258,113.45024 107.54114,113.27244 107.18554,113.27244 106.82994,113.27244 106.77067,113.27244 105.70387,113.2922 105.22973,113.8256 104.7556,114.33925 104.7556,114.99118 104.7556,115.64311 105.17047,116.09749 105.58533,116.53212 106.19776,116.78894 106.82994,117.02601 107.54114,117.3421 108.2721,117.65819 108.88452,117.99403 109.5167,118.31012 109.93157,118.9423 110.34643,119.55472 110.34643,120.48324 110.34643,121.41175 109.6945,122.06368 109.04256,122.71562 108.23258,122.93293 107.44236,123.15024 106.51385,123.15024 104.49878,123.15024 103.49124,122.26124 L 103.60977,122.14271 Q 104.00489,122.51806 104.77535,122.75513 105.56558,122.9922 106.29654,122.9922 107.46212,122.9922 108.21283,122.36002 108.9833,121.70808 108.9833,120.75982 108.9833,119.79179 108.41039,119.21888 107.83747,118.62621 107.00774,118.31012 106.19776,117.97428 105.36802,117.65819 104.53829,117.32234 103.96538,116.74943 103.39246,116.15676 103.39246,115.38629 103.39246,114.61582 103.74806,114.14169 104.10366,113.6478 104.69633,113.45024 105.70387,113.1144 106.7114,113.1144 108.41039,113.1144 109.35865,113.74658 Z"
       id="text1"
       style="font-size:19.7556px;line-height:0;font-family:Italiana;-inkscape-font-specification:Italiana;text-align:center;letter-spacing:0.529167px;word-spacing:0px;text-anchor:middle;fill:#e3e3e3;stroke:#e3e3e3;stroke-width:0.264583"
       aria-label="s" />
  </g>
</svg>
