<?xml version="1.0" encoding="UTF-8" standalone="no"?>
<!-- Created with Inkscape (http://www.inkscape.org/) -->

<svg
   width="9.6682501mm"
   height="10.221413mm"
   viewBox="0 0 9.6682501 10.221413"
   version="1.1"
   id="svg1"
   xmlns="http://www.w3.org/2000/svg"
   xmlns:svg="http://www.w3.org/2000/svg">
  <defs
     id="defs1" />
  <g
     id="layer1"
     transform="translate(-96.100212,-121.16201)">
    <path
       d="M 97.615395,128.90021 Q 97.615395,130.4609 98.44513,130.89553 98.840242,131.09308 99.452666,131.09308 100.69727,131.09308 101.66529,130.14481 102.65307,129.19654 102.7321,128.38656 V 121.2943 H 104.11499 V 129.76946 Q 104.11499,130.34237 104.3323,130.65846 104.56937,130.95479 104.80643,130.97455 L 105.02375,131.01406 H 105.63617 V 131.1721 H 104.43108 Q 103.6211,131.1721 103.18647,130.8165 102.77161,130.4609 102.75185,130.1053 L 102.7321,129.76946 V 128.91997 Q 102.37649,129.76946 101.46774,130.52017 100.55898,131.25113 99.472422,131.25113 98.405619,131.25113 97.714173,131.05357 97.042483,130.83626 96.746149,130.4609 96.232503,129.84848 96.232503,128.88045 V 121.2943 H 97.615395 Z"
       id="text1"
       style="font-size:19.7556px;line-height:0;font-family:Italiana;-inkscape-font-specification:Italiana;text-align:center;letter-spacing:0.529167px;word-spacing:0px;text-anchor:middle;fill:#e3e3e3;stroke:#e3e3e3;stroke-width:0.264583"
       aria-label="u" />
  </g>
</svg>
